<svg xmlns="http://www.w3.org/2000/svg" viewBox="0 0 180.62 120.78"><title>char_hair</title><g id="Layer_2" data-name="Layer 2"><g id="Layer_1-2" data-name="Layer 1"><path d="M97,88.62a42,42,0,0,1-9.62-9.69A46.5,46.5,0,0,1,80,62.49V88.62a33.61,33.61,0,0,1-6.79-6.57,39.94,39.94,0,0,1-7.83-19.56,64.59,64.59,0,0,1-.67,20.18,61.67,61.67,0,0,1-7.93,20.59,29.71,29.71,0,0,0,0-10.6,28.29,28.29,0,0,0-5.1-11.86,70.81,70.81,0,0,0-6.23,15.6,73.61,73.61,0,0,0-2.26,23.91,37.48,37.48,0,0,1-5.1-12,39.93,39.93,0,0,1,.57-19.64L18,111.4a66.16,66.16,0,0,1,5.7-26,64.2,64.2,0,0,1,5.7-10.16s-7.12,3.62-9.69,5.08a46.44,46.44,0,0,0-14.25,13,54.35,54.35,0,0,1,11.4-28.8A52.08,52.08,0,0,1,27.65,54.38,79.57,79.57,0,0,0,.29,64C2.83,58.71,10.73,44.22,27,38.57a41,41,0,0,1,9.46-2.07L22,19.37c6.54-1.18,47-8.19,53.39,5.33a8.9,8.9,0,0,1,.74,2.44L70.41,8.42C80.42,6.92,98.88,6.05,115,18a54.76,54.76,0,0,1,5.64,4.81q-.49-11.23-1-22.46a80.45,80.45,0,0,1,14.72,19.34,85.72,85.72,0,0,1,6.8,16.22q1.13-13.09,2.26-26.2a47.61,47.61,0,0,1,11.9,17.47,52.75,52.75,0,0,1,3.4,24.33,20.86,20.86,0,0,1,12.46,0,22.37,22.37,0,0,1,9.06,5.62,14.41,14.41,0,0,0-7.36,1.25,16.75,16.75,0,0,0-7.37,6.86,43.33,43.33,0,0,1,5.67,13.73,45.41,45.41,0,0,1,.56,16.85,13.92,13.92,0,0,0-3.4-9.36,11.32,11.32,0,0,0-7.92-3.75,27.82,27.82,0,0,0,1.14,14,27.22,27.22,0,0,0,4,7.34,26.11,26.11,0,0,1-11.4-11.29c-4.93-9.7-1.67-19-1.05-20.7a26.58,26.58,0,0,1-5.45,16,26,26,0,0,1-8.32,7,62.19,62.19,0,0,0,.72-34.82,74.08,74.08,0,0,1-7,23.53q-1.28,2.58-2.64,4.88A62.2,62.2,0,0,0,129.1,74.7a63.53,63.53,0,0,0-10.18-23.23,108.72,108.72,0,0,1,.77,25.59,107.71,107.71,0,0,1-3.88,20.59,59.29,59.29,0,0,1-15.38-15.6,66.23,66.23,0,0,1-10.12-25l.55,2.64c.73,5,1.67,10.22,2.88,15.75C94.76,80.13,95.87,84.51,97,88.62Z" fill="#333" stroke="#000" stroke-miterlimit="10" stroke-width="0.25"/></g></g></svg>